<mxfile host="app.diagrams.net" modified="2024-03-01T15:22:23.386Z" agent="Mozilla/5.0 (Windows NT 10.0; Win64; x64) AppleWebKit/537.36 (KHTML, like Gecko) Chrome/122.0.0.0 Safari/537.36" etag="z6Te2qJrbW7101gDMXIb" version="23.1.6" type="device">
  <diagram name="PÃ¡gina-1" id="mpDIp9KartXS1HLgm9nL">
    <mxGraphModel dx="1120" dy="426" grid="1" gridSize="10" guides="1" tooltips="1" connect="1" arrows="1" fold="1" page="1" pageScale="1" pageWidth="827" pageHeight="1169" math="0" shadow="0">
      <root>
        <mxCell id="0" />
        <mxCell id="1" parent="0" />
        <mxCell id="dUrY4pHaUPquvPoCR6Ch-18" value="" style="edgeStyle=orthogonalEdgeStyle;rounded=0;orthogonalLoop=1;jettySize=auto;html=1;" parent="1" source="dUrY4pHaUPquvPoCR6Ch-16" target="dUrY4pHaUPquvPoCR6Ch-17" edge="1">
          <mxGeometry relative="1" as="geometry" />
        </mxCell>
        <mxCell id="dUrY4pHaUPquvPoCR6Ch-16" value="start" style="ellipse;whiteSpace=wrap;html=1;" parent="1" vertex="1">
          <mxGeometry x="340" y="20" width="120" height="80" as="geometry" />
        </mxCell>
        <mxCell id="dUrY4pHaUPquvPoCR6Ch-20" value="" style="edgeStyle=orthogonalEdgeStyle;rounded=0;orthogonalLoop=1;jettySize=auto;html=1;" parent="1" source="dUrY4pHaUPquvPoCR6Ch-17" target="dUrY4pHaUPquvPoCR6Ch-19" edge="1">
          <mxGeometry relative="1" as="geometry" />
        </mxCell>
        <mxCell id="dUrY4pHaUPquvPoCR6Ch-17" value="empezar juego" style="whiteSpace=wrap;html=1;" parent="1" vertex="1">
          <mxGeometry x="340" y="150" width="120" height="60" as="geometry" />
        </mxCell>
        <mxCell id="dUrY4pHaUPquvPoCR6Ch-22" value="" style="edgeStyle=orthogonalEdgeStyle;rounded=0;orthogonalLoop=1;jettySize=auto;html=1;" parent="1" source="dUrY4pHaUPquvPoCR6Ch-19" target="dUrY4pHaUPquvPoCR6Ch-21" edge="1">
          <mxGeometry relative="1" as="geometry" />
        </mxCell>
        <mxCell id="dUrY4pHaUPquvPoCR6Ch-19" value="dibujar" style="whiteSpace=wrap;html=1;" parent="1" vertex="1">
          <mxGeometry x="340" y="260" width="120" height="60" as="geometry" />
        </mxCell>
        <mxCell id="dUrY4pHaUPquvPoCR6Ch-28" value="" style="edgeStyle=orthogonalEdgeStyle;rounded=0;orthogonalLoop=1;jettySize=auto;html=1;" parent="1" source="dUrY4pHaUPquvPoCR6Ch-21" target="dUrY4pHaUPquvPoCR6Ch-27" edge="1">
          <mxGeometry relative="1" as="geometry" />
        </mxCell>
        <mxCell id="dUrY4pHaUPquvPoCR6Ch-21" value="input" style="rhombus;whiteSpace=wrap;html=1;" parent="1" vertex="1">
          <mxGeometry x="360" y="360" width="80" height="80" as="geometry" />
        </mxCell>
        <mxCell id="dUrY4pHaUPquvPoCR6Ch-29" style="edgeStyle=orthogonalEdgeStyle;rounded=0;orthogonalLoop=1;jettySize=auto;html=1;entryX=0.5;entryY=0;entryDx=0;entryDy=0;exitX=0;exitY=0.5;exitDx=0;exitDy=0;" parent="1" source="dUrY4pHaUPquvPoCR6Ch-27" target="dUrY4pHaUPquvPoCR6Ch-30" edge="1">
          <mxGeometry relative="1" as="geometry">
            <mxPoint x="280" y="1077.6470588235295" as="targetPoint" />
            <Array as="points">
              <mxPoint x="100" y="510" />
              <mxPoint x="100" y="1089" />
              <mxPoint x="160" y="1089" />
            </Array>
          </mxGeometry>
        </mxCell>
        <mxCell id="dUrY4pHaUPquvPoCR6Ch-31" value="Verdadero" style="edgeLabel;html=1;align=center;verticalAlign=middle;resizable=0;points=[];" parent="dUrY4pHaUPquvPoCR6Ch-29" vertex="1" connectable="0">
          <mxGeometry x="-0.7459" y="-4" relative="1" as="geometry">
            <mxPoint as="offset" />
          </mxGeometry>
        </mxCell>
        <mxCell id="dUrY4pHaUPquvPoCR6Ch-34" value="" style="edgeStyle=orthogonalEdgeStyle;rounded=0;orthogonalLoop=1;jettySize=auto;html=1;entryX=0.5;entryY=0;entryDx=0;entryDy=0;" parent="1" source="dUrY4pHaUPquvPoCR6Ch-27" target="dUrY4pHaUPquvPoCR6Ch-40" edge="1">
          <mxGeometry relative="1" as="geometry">
            <mxPoint x="640" y="560" as="targetPoint" />
          </mxGeometry>
        </mxCell>
        <mxCell id="dUrY4pHaUPquvPoCR6Ch-35" value="Falso" style="edgeLabel;html=1;align=center;verticalAlign=middle;resizable=0;points=[];" parent="dUrY4pHaUPquvPoCR6Ch-34" vertex="1" connectable="0">
          <mxGeometry x="-0.399" y="4" relative="1" as="geometry">
            <mxPoint as="offset" />
          </mxGeometry>
        </mxCell>
        <mxCell id="dUrY4pHaUPquvPoCR6Ch-27" value="boton salir" style="rhombus;whiteSpace=wrap;html=1;" parent="1" vertex="1">
          <mxGeometry x="360" y="470" width="80" height="80" as="geometry" />
        </mxCell>
        <mxCell id="dUrY4pHaUPquvPoCR6Ch-30" value="end" style="ellipse;whiteSpace=wrap;html=1;" parent="1" vertex="1">
          <mxGeometry x="100" y="1169" width="120" height="80" as="geometry" />
        </mxCell>
        <mxCell id="dUrY4pHaUPquvPoCR6Ch-42" value="" style="edgeStyle=orthogonalEdgeStyle;rounded=0;orthogonalLoop=1;jettySize=auto;html=1;entryX=0.5;entryY=0;entryDx=0;entryDy=0;" parent="1" source="dUrY4pHaUPquvPoCR6Ch-40" target="dUrY4pHaUPquvPoCR6Ch-41" edge="1">
          <mxGeometry relative="1" as="geometry" />
        </mxCell>
        <mxCell id="dUrY4pHaUPquvPoCR6Ch-44" value="Verdadero" style="edgeLabel;html=1;align=center;verticalAlign=middle;resizable=0;points=[];" parent="dUrY4pHaUPquvPoCR6Ch-42" vertex="1" connectable="0">
          <mxGeometry x="-0.3076" y="-4" relative="1" as="geometry">
            <mxPoint as="offset" />
          </mxGeometry>
        </mxCell>
        <mxCell id="dUrY4pHaUPquvPoCR6Ch-43" style="edgeStyle=orthogonalEdgeStyle;rounded=0;orthogonalLoop=1;jettySize=auto;html=1;exitX=1;exitY=0.5;exitDx=0;exitDy=0;entryX=1;entryY=0.5;entryDx=0;entryDy=0;" parent="1" source="dUrY4pHaUPquvPoCR6Ch-40" target="dUrY4pHaUPquvPoCR6Ch-21" edge="1">
          <mxGeometry relative="1" as="geometry" />
        </mxCell>
        <mxCell id="dUrY4pHaUPquvPoCR6Ch-45" value="Falso" style="edgeLabel;html=1;align=center;verticalAlign=middle;resizable=0;points=[];" parent="dUrY4pHaUPquvPoCR6Ch-43" vertex="1" connectable="0">
          <mxGeometry x="-0.4124" relative="1" as="geometry">
            <mxPoint as="offset" />
          </mxGeometry>
        </mxCell>
        <mxCell id="dUrY4pHaUPquvPoCR6Ch-40" value="botones cambiar&lt;br&gt;direccion" style="rhombus;whiteSpace=wrap;html=1;" parent="1" vertex="1">
          <mxGeometry x="570" y="585" width="130" height="100" as="geometry" />
        </mxCell>
        <mxCell id="dUrY4pHaUPquvPoCR6Ch-47" value="" style="edgeStyle=orthogonalEdgeStyle;rounded=0;orthogonalLoop=1;jettySize=auto;html=1;" parent="1" source="dUrY4pHaUPquvPoCR6Ch-41" target="dUrY4pHaUPquvPoCR6Ch-46" edge="1">
          <mxGeometry relative="1" as="geometry" />
        </mxCell>
        <mxCell id="dUrY4pHaUPquvPoCR6Ch-41" value="mover al snake" style="whiteSpace=wrap;html=1;" parent="1" vertex="1">
          <mxGeometry x="350" y="685" width="120" height="60" as="geometry" />
        </mxCell>
        <mxCell id="dUrY4pHaUPquvPoCR6Ch-50" style="edgeStyle=orthogonalEdgeStyle;rounded=0;orthogonalLoop=1;jettySize=auto;html=1;exitX=1;exitY=0.5;exitDx=0;exitDy=0;entryX=1;entryY=0.5;entryDx=0;entryDy=0;" parent="1" source="dUrY4pHaUPquvPoCR6Ch-46" target="dUrY4pHaUPquvPoCR6Ch-41" edge="1">
          <mxGeometry relative="1" as="geometry">
            <Array as="points">
              <mxPoint x="520" y="825" />
              <mxPoint x="520" y="715" />
            </Array>
          </mxGeometry>
        </mxCell>
        <mxCell id="dUrY4pHaUPquvPoCR6Ch-51" value="falso" style="edgeLabel;html=1;align=center;verticalAlign=middle;resizable=0;points=[];" parent="dUrY4pHaUPquvPoCR6Ch-50" vertex="1" connectable="0">
          <mxGeometry x="0.0171" y="-3" relative="1" as="geometry">
            <mxPoint as="offset" />
          </mxGeometry>
        </mxCell>
        <mxCell id="dUrY4pHaUPquvPoCR6Ch-53" value="" style="edgeStyle=orthogonalEdgeStyle;rounded=0;orthogonalLoop=1;jettySize=auto;html=1;" parent="1" source="dUrY4pHaUPquvPoCR6Ch-46" target="dUrY4pHaUPquvPoCR6Ch-52" edge="1">
          <mxGeometry relative="1" as="geometry" />
        </mxCell>
        <mxCell id="dUrY4pHaUPquvPoCR6Ch-54" value="verdadero" style="edgeLabel;html=1;align=center;verticalAlign=middle;resizable=0;points=[];" parent="dUrY4pHaUPquvPoCR6Ch-53" vertex="1" connectable="0">
          <mxGeometry x="-0.2226" y="3" relative="1" as="geometry">
            <mxPoint x="-12" y="-8" as="offset" />
          </mxGeometry>
        </mxCell>
        <mxCell id="dUrY4pHaUPquvPoCR6Ch-46" value="verificar colisiones" style="rhombus;whiteSpace=wrap;html=1;" parent="1" vertex="1">
          <mxGeometry x="360" y="780" width="100" height="90" as="geometry" />
        </mxCell>
        <mxCell id="dUrY4pHaUPquvPoCR6Ch-56" value="" style="edgeStyle=orthogonalEdgeStyle;rounded=0;orthogonalLoop=1;jettySize=auto;html=1;exitX=1;exitY=0.5;exitDx=0;exitDy=0;" parent="1" source="dUrY4pHaUPquvPoCR6Ch-52" target="dUrY4pHaUPquvPoCR6Ch-55" edge="1">
          <mxGeometry relative="1" as="geometry" />
        </mxCell>
        <mxCell id="S9pBxS51wgCzOrcR4dCQ-1" value="verdadero" style="edgeLabel;html=1;align=center;verticalAlign=middle;resizable=0;points=[];" vertex="1" connectable="0" parent="dUrY4pHaUPquvPoCR6Ch-56">
          <mxGeometry x="-0.5529" y="1" relative="1" as="geometry">
            <mxPoint x="12" y="1" as="offset" />
          </mxGeometry>
        </mxCell>
        <mxCell id="dUrY4pHaUPquvPoCR6Ch-57" style="edgeStyle=orthogonalEdgeStyle;rounded=0;orthogonalLoop=1;jettySize=auto;html=1;exitX=0;exitY=0.5;exitDx=0;exitDy=0;entryX=0.5;entryY=0;entryDx=0;entryDy=0;" parent="1" source="dUrY4pHaUPquvPoCR6Ch-52" target="dUrY4pHaUPquvPoCR6Ch-30" edge="1">
          <mxGeometry relative="1" as="geometry" />
        </mxCell>
        <mxCell id="S9pBxS51wgCzOrcR4dCQ-2" value="falso" style="edgeLabel;html=1;align=center;verticalAlign=middle;resizable=0;points=[];" vertex="1" connectable="0" parent="dUrY4pHaUPquvPoCR6Ch-57">
          <mxGeometry x="-0.6791" y="-2" relative="1" as="geometry">
            <mxPoint as="offset" />
          </mxGeometry>
        </mxCell>
        <mxCell id="dUrY4pHaUPquvPoCR6Ch-52" value="fruta" style="rhombus;whiteSpace=wrap;html=1;" parent="1" vertex="1">
          <mxGeometry x="260" y="880" width="80" height="80" as="geometry" />
        </mxCell>
        <mxCell id="dUrY4pHaUPquvPoCR6Ch-58" style="edgeStyle=orthogonalEdgeStyle;rounded=0;orthogonalLoop=1;jettySize=auto;html=1;entryX=1;entryY=0.5;entryDx=0;entryDy=0;" parent="1" source="dUrY4pHaUPquvPoCR6Ch-55" target="dUrY4pHaUPquvPoCR6Ch-19" edge="1">
          <mxGeometry relative="1" as="geometry">
            <Array as="points">
              <mxPoint x="560" y="1020" />
              <mxPoint x="560" y="950" />
              <mxPoint x="780" y="950" />
              <mxPoint x="780" y="290" />
            </Array>
          </mxGeometry>
        </mxCell>
        <mxCell id="dUrY4pHaUPquvPoCR6Ch-55" value="aumentar tamanio" style="whiteSpace=wrap;html=1;" parent="1" vertex="1">
          <mxGeometry x="380" y="990" width="120" height="60" as="geometry" />
        </mxCell>
      </root>
    </mxGraphModel>
  </diagram>
</mxfile>
